<svg width="450" height="369" viewBox="0 0 450 369" fill="none" xmlns="http://www.w3.org/2000/svg">
<path d="M402.478 353.9H167.348C149.867 353.9 135.696 337.812 135.696 317.967V126.75L284.913 15.1001L434.13 126.75V317.967C434.13 337.812 419.959 353.9 402.478 353.9Z" stroke="#D8CCBF" stroke-width="30" stroke-linecap="round" stroke-linejoin="round"/>
<path d="M282.652 353.9H47.5217C30.0407 353.9 15.8696 337.812 15.8696 317.967V126.75L165.087 15.1001L314.304 126.75V317.967C314.304 337.812 300.133 353.9 282.652 353.9Z" stroke="#D8CCBF" stroke-width="30" stroke-linecap="round" stroke-linejoin="round"/>
<path d="M165.041 290.233C143.638 290.233 123.685 278.209 111.666 258.074C108.514 252.793 109.73 245.611 114.381 242.033C119.034 238.451 125.36 239.835 128.512 245.114C136.74 258.901 150.396 267.133 165.041 267.133C179.685 267.133 193.341 258.901 201.569 245.114C204.721 239.836 211.048 238.453 215.7 242.033C220.352 245.611 221.567 252.793 218.415 258.074C206.396 278.209 186.443 290.233 165.041 290.233Z" fill="#D8CCBF"/>
<path d="M165.041 290.233C143.638 290.233 123.685 278.209 111.666 258.074C108.514 252.793 109.73 245.611 114.381 242.033C119.034 238.451 125.36 239.835 128.512 245.114C136.74 258.901 150.396 267.133 165.041 267.133C179.685 267.133 193.341 258.901 201.569 245.114C204.721 239.836 211.048 238.453 215.7 242.033C220.352 245.611 221.567 252.793 218.415 258.074C206.396 278.209 186.443 290.233 165.041 290.233Z" fill="#D8CCBF"/>
<path d="M229.137 191.258C237.318 191.258 243.951 183.729 243.951 174.441C243.951 165.153 237.318 157.622 229.137 157.622C220.956 157.622 214.324 165.153 214.324 174.441C214.324 183.729 220.956 191.258 229.137 191.258Z" fill="#D8CCBF"/>
<path d="M115.962 174.441C115.962 183.729 109.329 191.258 101.148 191.258C92.9675 191.258 86.3352 183.729 86.3352 174.441C86.3352 165.153 92.9675 157.622 101.148 157.622C109.329 157.622 115.962 165.153 115.962 174.441Z" fill="#D8CCBF"/>
<g opacity="0.999996">
<path d="M227.998 165.695C223.744 165.695 220.295 169.611 220.295 174.44C220.295 179.27 223.744 183.185 227.998 183.185H230.276C234.531 183.185 237.98 179.27 237.98 174.44C237.98 169.611 234.531 165.695 230.276 165.695H227.998Z" fill="#D8CCBF"/>
</g>
<g opacity="0.999996">
<path d="M227.998 165.695C223.744 165.695 220.295 169.611 220.295 174.44C220.295 179.27 223.744 183.185 227.998 183.185H230.276C234.531 183.185 237.98 179.27 237.98 174.44C237.98 169.611 234.531 165.695 230.276 165.695H227.998Z" fill="#D8CCBF"/>
</g>
<path d="M100.009 165.695C95.7551 165.695 92.3062 169.611 92.3062 174.44C92.3062 179.27 95.7551 183.185 100.009 183.185H102.287C106.542 183.185 109.991 179.27 109.991 174.44C109.991 169.611 106.542 165.695 102.287 165.695H100.009Z" fill="#D8CCBF"/>
<path d="M100.009 165.695C95.7551 165.695 92.3062 169.611 92.3062 174.44C92.3062 179.27 95.7551 183.185 100.009 183.185H102.287C106.542 183.185 109.991 179.27 109.991 174.44C109.991 169.611 106.542 165.695 102.287 165.695H100.009Z" fill="#D8CCBF"/>
</svg>
